<mxfile host="Electron" modified="2024-06-04T12:51:49.303Z" agent="Mozilla/5.0 (X11; Linux x86_64) AppleWebKit/537.36 (KHTML, like Gecko) draw.io/24.4.8 Chrome/124.0.6367.207 Electron/30.0.6 Safari/537.36" etag="4t6mFvBTUIyoLoJz7Tk5" version="24.3.1" type="device">
  <diagram name="Page-1" id="hPzbPphXDCug8y6Lsw_Y">
    <mxGraphModel dx="969" dy="713" grid="1" gridSize="10" guides="1" tooltips="1" connect="1" arrows="1" fold="1" page="1" pageScale="1" pageWidth="600" pageHeight="180" math="0" shadow="0">
      <root>
        <mxCell id="0" />
        <mxCell id="1" parent="0" />
        <mxCell id="Nsiy_E6iUBLVD8NRgQos-1" value="" style="shape=image;verticalLabelPosition=bottom;labelBackgroundColor=default;verticalAlign=top;aspect=fixed;imageAspect=0;image=data:image/svg+xml,PHN2ZyB4bWxuczp4bGluaz0iaHR0cDovL3d3dy53My5vcmcvMTk5OS94bGluayIgeG1sbnM9Imh0dHA6Ly93d3cudzMub3JnLzIwMDAvc3ZnIiB4bWw6c3BhY2U9InByZXNlcnZlIiBzdHlsZT0iZW5hYmxlLWJhY2tncm91bmQ6bmV3IDAgMCAyMjAgMjIwOyIgdmlld0JveD0iMCAwIDIyMCAyMjAiIHk9IjBweCIgeD0iMHB4IiBpZD0iTGF5ZXJfMSIgdmVyc2lvbj0iMS4wIj4mI3hhOzxzdHlsZSB0eXBlPSJ0ZXh0L2NzcyI+JiN4YTsJQG1lZGlhIChwcmVmZXJzLWNvbG9yLXNjaGVtZTogZGFyaykgeyYjeGE7ICAgICAgICBwYXRoIHsmI3hhOyAgICAgICAgICAgIGZpbGw6IHdoaXRlICFpbXBvcnRhbnQ7JiN4YTsgICAgICAgIH0mI3hhOyAgICB9JiN4YTs8L3N0eWxlPiYjeGE7PHBhdGggZD0iTTYwLjYsMTI2Ljk5Yy0wLjYsMC44My0xLjA4LDEuNDktMS42NiwyLjNjLTYuMjgtNC4zNS0xMC4zMi0xMC4wNi0xMi4yNi0xNy4yYy01LjEtMTguODEsOC4yNy0zNy4yMiwyNy44Mi0zOC41MSYjMTA7JiM5O2MxLjA0LTAuMDcsMi4yMi0wLjg5LDIuOTktMS43YzE0LjgtMTUuNCwzOC40Ni0xNS45Miw1My41LTAuOTdjMi40OCwyLjQ2LDQuNDEsNS41LDYuMzcsOC40M2MwLjg0LDEuMjYsMS40NywxLjc5LDMuMDgsMS40OSYjMTA7JiM5O2MxMy45Ny0yLjU3LDI4LjYzLDguNTYsMzAuMzksMjIuNzdjMS4yNiwxMC4xNy0yLjE0LDE4LjM1LTkuODgsMjUuMjNjLTAuNjgtMC44Mi0xLjI0LTEuNDktMS43OS0yLjE0JiMxMDsmIzk7YzkuODMtMTEuMDksMTEuNjUtMjEuMzUsNS42Ni0zMS40M2MtNC4zMS03LjI2LTE0LjA4LTE0LjQ4LTI3LjcxLTEwLjg1Yy0yLjE3LTMuMjQtMy45OS02LjY4LTYuNDctOS41NSYjMTA7JiM5O2MtMTMuNy0xNS44OC0zNy45OC0xNS44NC01MS43OC0wLjAyYy0wLjkyLDEuMDYtMS43OCwxLjU5LTMuMjUsMS42OWMtMTMuMjQsMC45Ni0yMi44MSw4LjI5LTI2LjA0LDIwLjQxJiMxMDsmIzk7Yy0yLjk0LDExLjA0LDAuMjYsMjAuNDYsOC42NywyOC4xM0M1OC45MywxMjUuNjksNTkuNjcsMTI2LjIzLDYwLjYsMTI2Ljk5eiIvPiYjeGE7PHBhdGggZD0iTTEwOC4zNCw5MS4zNmMxMS41NCwwLDIzLjA5LDAsMzQuNjMsMGM0LjczLDAsNi40OSwxLjc4LDYuNSw2LjU3YzAuMDEsNC4xNiwwLjAxLDguMzEsMCwxMi40NyYjMTA7JiM5O2MtMC4wMSwzLjk1LTEuOTcsNS45Ny01Ljk1LDUuOTljLTguMzEsMC4wNC0xNi42MiwwLjAxLTI0Ljk0LDAuMDFjLTE0Ljc4LDAtMjkuNTUsMC00NC4zMywwYy01LjI2LDAtNi45LTEuNjMtNi45MS02Ljg1JiMxMDsmIzk7YzAtNC0wLjAxLTgsMC0xMi4wMWMwLjAxLTQuMzYsMS44LTYuMTksNi4xMy02LjE5Qzg1LjA5LDkxLjM1LDk2LjcxLDkxLjM2LDEwOC4zNCw5MS4zNnogTTEwOC4xOSwxMTMuMzhjMTEuNjIsMCwyMy4yMywwLDM0Ljg1LDAmIzEwOyYjOTtjMi45OSwwLDMuMzgtMC4zOCwzLjM4LTMuMjhjMC4wMS00LjE1LDAuMDEtOC4zMSwwLTEyLjQ2Yy0wLjAxLTIuOTUtMC4zNS0zLjI5LTMuMzUtMy4yOWMtMjMuMTUsMC00Ni4zMSwwLTY5LjQ2LDAmIzEwOyYjOTtjLTIuNzksMC0zLjM0LDAuNTMtMy4zNywzLjM4Yy0wLjA0LDQtMC4wMyw4LTAuMDEsMTJjMC4wMiwzLjIsMC41MSwzLjY1LDMuODEsMy42NUM4NS40MiwxMTMuMzksOTYuOCwxMTMuMzgsMTA4LjE5LDExMy4zOHoiLz4mI3hhOzxwYXRoIGQ9Ik0xMDguMzUsMTc0Ljc4Yy0xMS43LDAtMjMuMzksMC4wMS0zNS4wOSwwYy00LjIsMC01LjktMS42OS01LjkxLTUuODNjLTAuMDEtNC4zMS0wLjAxLTguNjIsMC0xMi45MyYjMTA7JiM5O2MwLjAxLTQuMjksMS44NC02LjExLDYuMjEtNi4xMmMxMS40Ny0wLjAxLDIyLjkzLDAsMzQuNCwwYzExLjcsMCwyMy4zOSwwLDM1LjA5LDBjNC42LDAsNi40MiwxLjgyLDYuNDIsNi40MSYjMTA7JiM5O2MwLjAxLDQuMzEsMC4wMiw4LjYyLTAuMDEsMTIuOTNjLTAuMDIsMy42Mi0xLjkzLDUuNTMtNS41Niw1LjUzQzEzMi4wNSwxNzQuNzksMTIwLjIsMTc0Ljc4LDEwOC4zNSwxNzQuNzh6IE0xMDguMzIsMTUyLjkyJiMxMDsmIzk7Yy0xMS40NywwLTIyLjk1LDAtMzQuNDIsMGMtMy4xNiwwLTMuNjYsMC40Ny0zLjY4LDMuNTVjLTAuMDMsMy45My0wLjAyLDcuODUsMCwxMS43OGMwLjAyLDMuMiwwLjYsMy43NywzLjc4LDMuNzgmIzEwOyYjOTtjOS44NiwwLjAxLDE5LjcxLDAsMjkuNTcsMGMxMy4wMSwwLDI2LjAzLDAsMzkuMDQsMGMzLjQyLDAsMy44LTAuNCwzLjgtMy44N2MwLTMuOTMsMC4wMS03Ljg1LDAtMTEuNzgmIzEwOyYjOTtjLTAuMDEtMy4xMS0wLjMzLTMuNDUtMy40NC0zLjQ2QzEzMS40MiwxNTIuOTEsMTE5Ljg3LDE1Mi45MiwxMDguMzIsMTUyLjkyeiIvPiYjeGE7PHBhdGggZD0iTTEwOC40MiwxNDUuNmMtMTEuNjIsMC0yMy4yNCwwLTM0Ljg2LDBjLTQuNDksMC02LjIxLTEuNzUtNi4yMi02LjNjLTAuMDEtNC4zOS0wLjAyLTguNzcsMC4wMS0xMy4xNiYjMTA7JiM5O2MwLjAyLTMuNTIsMS45LTUuNDIsNS40NC01LjQyYzIzLjctMC4wMiw0Ny40MS0wLjAyLDcxLjExLDBjMy42MSwwLDUuNTQsMS45Nyw1LjU2LDUuNTdjMC4wMyw0LjU0LDAuMDMsOS4wOCwwLDEzLjYyJiMxMDsmIzk7Yy0wLjAyLDMuNjktMi4wMSw1LjY4LTUuNzEsNS42OEMxMzEuOTcsMTQ1LjYxLDEyMC4yLDE0NS42LDEwOC40MiwxNDUuNnogTTEwOC4zLDE0Mi41NWMxMS42MywwLDIzLjI2LDAsMzQuODksMCYjMTA7JiM5O2MyLjk1LDAsMy4yMi0wLjI4LDMuMjMtMy4xM2MwLjAxLTQuMTYsMC4wMS04LjMyLDAtMTIuNDhjLTAuMDEtMi44OS0wLjQ5LTMuNDEtMy4zMS0zLjQxYy0yMy4xOC0wLjAxLTQ2LjM2LTAuMDEtNjkuNTQsMCYjMTA7JiM5O2MtMi42MywwLTMuMywwLjY1LTMuMzMsMy4yN2MtMC4wNSw0LjA4LTAuMDMsOC4xNi0wLjAxLDEyLjI0YzAuMDIsMy4xMywwLjQzLDMuNTEsMy42NSwzLjUxJiMxMDsmIzk7Qzg1LjM1LDE0Mi41Niw5Ni44MiwxNDIuNTUsMTA4LjMsMTQyLjU1eiIvPiYjeGE7PHBhdGggZD0iTTEyMC4yOSwxMDguMzljLTQuNjIsMC05LjI0LDAuMDctMTMuODYtMC4wM2MtMy4yMy0wLjA3LTQuNzktMS45MS00LjU0LTUuMDZjMC4yLTIuNTYsMS43NS0zLjk0LDQuNzEtMy45NyYjMTA7JiM5O2M0Ljg1LTAuMDUsOS43LTAuMDIsMTQuNTUtMC4wMmM0LjI0LDAsOC40Ny0wLjA0LDEyLjcxLDAuMDJjMy4xNSwwLjA0LDQuNzUsMS41NSw0LjgxLDQuMzdjMC4wNywyLjk0LTEuNTUsNC42Mi00Ljc1LDQuNjcmIzEwOyYjOTtDMTI5LjM3LDEwOC40NSwxMjQuODMsMTA4LjQsMTIwLjI5LDEwOC4zOXogTTEyMC40NSwxMDIuMjFjLTQuNDYsMC04LjkyLTAuMDgtMTMuMzcsMC4wN2MtMC43OSwwLjAzLTIuMSwwLjg3LTIuMjMsMS41MSYjMTA7JiM5O2MtMC4zLDEuNTYsMS4wMywxLjc0LDIuMjgsMS43NGM4Ljc2LTAuMDEsMTcuNTMtMC4wMSwyNi4yOSwwYzEuMTUsMCwyLjI0LTAuMDgsMi4zLTEuNThjMC4wNi0xLjY3LTEuMTItMS43NC0yLjM2LTEuNzQmIzEwOyYjOTtDMTI5LjA2LDEwMi4yMiwxMjQuNzUsMTAyLjIxLDEyMC40NSwxMDIuMjF6Ii8+JiN4YTs8cGF0aCBkPSJNMTAwLjE2LDEwMy44MWMwLjAyLDIuNjItMS44OCw0LjU0LTQuNDcsNC41M2MtMi41NywwLTQuNDQtMS45My00LjQxLTQuNTdjMC4wMi0yLjUsMS44NS00LjM3LDQuMzMtNC40MiYjMTA7JiM5O0M5OC4xOSw5OS4zLDEwMC4xNSwxMDEuMjIsMTAwLjE2LDEwMy44MXogTTk3Ljk0LDEwMy44M2MtMS4wNS0wLjcyLTEuNjgtMS40Ny0yLjMtMS40N2MtMC41MSwwLTEuNDksMC45OS0xLjQxLDEuMzgmIzEwOyYjOTtjMC4xMiwwLjY1LDAuODcsMS41NCwxLjQ2LDEuNjJDOTYuMjMsMTA1LjQ0LDk2LjksMTA0LjU4LDk3Ljk0LDEwMy44M3oiLz4mI3hhOzxwYXRoIGQ9Ik03OS43NywxMDMuODdjMC0yLjU5LDEuOTMtNC41NCw0LjQ5LTQuNTJjMi41OCwwLjAyLDQuNDUsMS45Nyw0LjQxLDQuNTljLTAuMDQsMi41MS0xLjg2LDQuMzQtNC4zNyw0LjM4JiMxMDsmIzk7QzgxLjY5LDEwOC4zNyw3OS43OCwxMDYuNDgsNzkuNzcsMTAzLjg3eiBNODYuNDIsMTAzLjc0Yy0xLjA2LTAuNjctMS43MS0xLjM5LTIuMzItMS4zN2MtMC41LDAuMDItMS40MiwxLjAzLTEuMzMsMS40MyYjMTA7JiM5O2MwLjEzLDAuNjMsMC45MSwxLjUxLDEuNDksMS41NkM4NC43OSwxMDUuNDEsODUuNDIsMTA0LjUzLDg2LjQyLDEwMy43NHoiLz4mI3hhOzxwYXRoIGQ9Ik0xMjAuMjIsMTY2LjljLTQuNjEsMC05LjIyLDAuMDItMTMuODMtMC4wMWMtMi43OC0wLjAxLTQuMzgtMS40OS00LjUxLTQuMWMtMC4xNC0yLjkzLDEuMzctNC44OCw0LjI0LTQuOTEmIzEwOyYjOTtjOS40NS0wLjA5LDE4LjktMC4wOSwyOC4zNSwwLjAxYzIuNzMsMC4wMyw0LjI4LDIsNC4xOCw0Ljc0Yy0wLjEsMi43NS0xLjY5LDQuMjUtNC42LDQuMjdDMTI5LjQ0LDE2Ni45MiwxMjQuODMsMTY2LjksMTIwLjIyLDE2Ni45JiMxMDsmIzk7eiBNMTIwLjUzLDE2MC44NmMtNC41NCwwLTkuMDktMC4wNi0xMy42MiwwLjA2Yy0wLjczLDAuMDItMS45MywwLjc5LTIuMDcsMS40Yy0wLjMzLDEuNDMsMC44OSwxLjc0LDIuMDcsMS43NCYjMTA7JiM5O2M4Ljg1LDAuMDEsMTcuNzEsMC4wNSwyNi41Ni0wLjA3YzAuNzYtMC4wMSwyLjAzLTAuOTIsMi4xNy0xLjZjMC4zMS0xLjUyLTEuMDUtMS41NC0yLjE3LTEuNTQmIzEwOyYjOTtDMTI5LjE1LDE2MC44NiwxMjQuODQsMTYwLjg2LDEyMC41MywxNjAuODZ6Ii8+JiN4YTs8cGF0aCBkPSJNODguNjcsMTYyLjMxYzAuMDUsMi42MS0xLjc4LDQuNTMtNC4zNSw0LjU4Yy0yLjU4LDAuMDUtNC41LTEuOC00LjU1LTQuMzdjLTAuMDQtMi41OCwxLjgyLTQuNTgsNC4zNC00LjY1JiMxMDsmIzk7Qzg2LjYyLDE1Ny44LDg4LjYyLDE1OS43NSw4OC42NywxNjIuMzF6IE04NC4wNSwxNjAuMTJjLTAuNjYsMS4yMy0xLjMyLDEuOTEtMS4yNSwyLjUyYzAuMDUsMC40NywxLjAyLDEuMjIsMS41MywxLjE4JiMxMDsmIzk7YzAuNTItMC4wNCwxLjM3LTAuOTEsMS4zNS0xLjM5Qzg1LjY1LDE2MS44MSw4NC45LDE2MS4yNCw4NC4wNSwxNjAuMTJ6Ii8+JiN4YTs8cGF0aCBkPSJNMTAwLjE3LDE2Mi4zN2MwLjAyLDIuNTktMS44NSw0LjUxLTQuNDEsNC41M2MtMi41OSwwLjAyLTQuNDctMS44My00LjQ5LTQuNDNjLTAuMDItMi42MSwxLjg2LTQuNTgsNC4zOC00LjYmIzEwOyYjOTtDOTguMTcsMTU3Ljg0LDEwMC4xNSwxNTkuODEsMTAwLjE3LDE2Mi4zN3ogTTk1LjcxLDE2MC4yYy0wLjc0LDEuMDctMS40OCwxLjY3LTEuNDksMi4yOGMtMC4wMSwwLjQ3LDAuOTUsMS40LDEuMzgsMS4zNCYjMTA7JiM5O2MwLjYyLTAuMDksMS41MS0wLjgxLDEuNi0xLjM3Qzk3LjI3LDE2MS45Miw5Ni40NSwxNjEuMjYsOTUuNzEsMTYwLjJ6Ii8+JiN4YTs8cGF0aCBkPSJNMTIwLjI5LDEyOC42MmM0LjUzLDAsOS4wNy0wLjAyLDEzLjYsMC4wMWMzLjA2LDAuMDIsNC43LDEuNTcsNC43Niw0LjM5YzAuMDUsMi44OS0xLjcsNC43MS00LjcyLDQuNzImIzEwOyYjOTtjLTkuMTQsMC4wMy0xOC4yOSwwLjAzLTI3LjQzLDBjLTIuOTMtMC4wMS00LjYyLTEuNzUtNC42My00LjU3Yy0wLjAxLTIuODgsMS41OS00LjUxLDQuNTktNC41MyYjMTA7JiM5O0MxMTEuMDcsMTI4LjYsMTE1LjY4LDEyOC42MiwxMjAuMjksMTI4LjYyeiBNMTIwLjIsMTM0LjY5YzQuMzksMCw4Ljc4LDAsMTMuMTcsMGMxLjA5LDAsMi4zLDAuMTQsMi4zNS0xLjQ2JiMxMDsmIzk7YzAuMDUtMS42OS0xLjItMS43NS0yLjM5LTEuNzVjLTguNzgtMC4wMS0xNy41Ni0wLjA1LTI2LjMzLDAuMDdjLTAuNzYsMC4wMS0yLjAyLDAuOTUtMi4xNSwxLjYzYy0wLjI4LDEuNTIsMS4wNywxLjUxLDIuMTksMS41MSYjMTA7JiM5O0MxMTEuNDMsMTM0LjY4LDExNS44MiwxMzQuNjksMTIwLjIsMTM0LjY5eiIvPiYjeGE7PHBhdGggZD0iTTg4LjY3LDEzMy4xNWMwLDIuNTMtMi4wMSw0LjU5LTQuNDUsNC41OGMtMi40NS0wLjAxLTQuNDQtMi4wNy00LjQ0LTQuNTljMC0yLjYsMS44OC00LjUxLDQuNDUtNC41MSYjMTA7JiM5O0M4Ni43OCwxMjguNjMsODguNjcsMTMwLjU2LDg4LjY3LDEzMy4xNXogTTg2LjMxLDEzMy4yYy0wLjg2LTAuNy0xLjQ1LTEuNTQtMS45MS0xLjQ3Yy0wLjY0LDAuMS0xLjE3LDAuODctMS43NCwxLjM2JiMxMDsmIzk7YzAuNTUsMC41MywxLjAzLDEuMzQsMS42NiwxLjQ4Qzg0Ljc2LDEzNC42Nyw4NS40MSwxMzMuODUsODYuMzEsMTMzLjJ6Ii8+JiN4YTs8cGF0aCBkPSJNMTAwLjE3LDEzMy4xNWMtMC4wMSwyLjU0LTEuOTksNC41OC00LjQ2LDQuNThjLTIuNDgsMC00LjQzLTIuMDItNC40My00LjU4YzAtMi42MSwxLjg4LTQuNTIsNC40NC00LjUyJiMxMDsmIzk7Qzk4LjI4LDEyOC42MywxMDAuMTcsMTMwLjU1LDEwMC4xNywxMzMuMTV6IE05NS43NSwxMzAuODdjLTAuNzcsMS4wOS0xLjU5LDEuNzUtMS41MSwyLjI4YzAuMDgsMC41NiwwLjk3LDEuMjksMS41OSwxLjQmIzEwOyYjOTtjMC40LDAuMDcsMS4zNi0wLjg2LDEuMzYtMS4zNUM5Ny4xOSwxMzIuNiw5Ni40NywxMzEuOTgsOTUuNzUsMTMwLjg3eiIvPiYjeGE7PC9zdmc+;" vertex="1" parent="1">
          <mxGeometry x="240" y="180" width="150" height="150" as="geometry" />
        </mxCell>
        <mxCell id="Nsiy_E6iUBLVD8NRgQos-2" value="" style="shape=datastore;whiteSpace=wrap;html=1;strokeWidth=3;" vertex="1" parent="1">
          <mxGeometry x="490" y="230" width="60" height="60" as="geometry" />
        </mxCell>
        <mxCell id="Nsiy_E6iUBLVD8NRgQos-3" value="" style="sketch=0;pointerEvents=1;shadow=0;dashed=0;html=1;strokeColor=none;fillColor=#FFFFFF;aspect=fixed;labelPosition=center;verticalLabelPosition=bottom;verticalAlign=top;align=center;outlineConnect=0;shape=mxgraph.vvd.web_browser;" vertex="1" parent="1">
          <mxGeometry x="50" y="230" width="84.51" height="60" as="geometry" />
        </mxCell>
        <mxCell id="Nsiy_E6iUBLVD8NRgQos-8" value="Frontend" style="text;html=1;align=center;verticalAlign=middle;whiteSpace=wrap;rounded=0;fontSize=16;" vertex="1" parent="1">
          <mxGeometry x="62.260000000000005" y="320" width="60" height="30" as="geometry" />
        </mxCell>
        <mxCell id="Nsiy_E6iUBLVD8NRgQos-9" value="Backend" style="text;html=1;align=center;verticalAlign=middle;whiteSpace=wrap;rounded=0;fontSize=16;" vertex="1" parent="1">
          <mxGeometry x="285" y="320" width="60" height="30" as="geometry" />
        </mxCell>
        <mxCell id="Nsiy_E6iUBLVD8NRgQos-10" value="Database" style="text;html=1;align=center;verticalAlign=middle;whiteSpace=wrap;rounded=0;fontSize=16;" vertex="1" parent="1">
          <mxGeometry x="490" y="320" width="60" height="30" as="geometry" />
        </mxCell>
        <mxCell id="Nsiy_E6iUBLVD8NRgQos-11" value="" style="shape=flexArrow;endArrow=classic;startArrow=classic;html=1;rounded=0;" edge="1" parent="1">
          <mxGeometry width="100" height="100" relative="1" as="geometry">
            <mxPoint x="160" y="259.57" as="sourcePoint" />
            <mxPoint x="240" y="259.57" as="targetPoint" />
          </mxGeometry>
        </mxCell>
        <mxCell id="Nsiy_E6iUBLVD8NRgQos-12" value="" style="shape=flexArrow;endArrow=classic;startArrow=classic;html=1;rounded=0;" edge="1" parent="1">
          <mxGeometry width="100" height="100" relative="1" as="geometry">
            <mxPoint x="380" y="259.57" as="sourcePoint" />
            <mxPoint x="460" y="259.57" as="targetPoint" />
          </mxGeometry>
        </mxCell>
      </root>
    </mxGraphModel>
  </diagram>
</mxfile>
